<svg width="18" height="16" viewBox="0 0 18 16" fill="none" xmlns="http://www.w3.org/2000/svg">
<path d="M15.75 5.68333C14.2417 5.68333 13.625 4.61666 14.375 3.30833C14.8084 2.55 14.55 1.58333 13.7917 1.15L12.35 0.324998C11.6917 -0.0666687 10.8417 0.166665 10.45 0.824998L10.3584 0.983331C9.60835 2.29166 8.37502 2.29166 7.61669 0.983331L7.52502 0.824998C7.15002 0.166665 6.30002 -0.0666687 5.64169 0.324998L4.20002 1.15C3.44169 1.58333 3.18335 2.55833 3.61669 3.31666C4.37502 4.61666 3.75835 5.68333 2.25002 5.68333C1.38335 5.68333 0.666687 6.39166 0.666687 7.26666V8.73333C0.666687 9.6 1.37502 10.3167 2.25002 10.3167C3.75835 10.3167 4.37502 11.3833 3.61669 12.6917C3.18335 13.45 3.44169 14.4167 4.20002 14.85L5.64169 15.675C6.30002 16.0667 7.15002 15.8333 7.54169 15.175L7.63335 15.0167C8.38335 13.7083 9.61669 13.7083 10.375 15.0167L10.4667 15.175C10.8584 15.8333 11.7084 16.0667 12.3667 15.675L13.8084 14.85C14.5667 14.4167 14.825 13.4417 14.3917 12.6917C13.6334 11.3833 14.25 10.3167 15.7584 10.3167C16.625 10.3167 17.3417 9.60833 17.3417 8.73333V7.26666C17.3334 6.4 16.625 5.68333 15.75 5.68333ZM9.00002 10.7083C7.50835 10.7083 6.29169 9.49166 6.29169 8C6.29169 6.50833 7.50835 5.29166 9.00002 5.29166C10.4917 5.29166 11.7084 6.50833 11.7084 8C11.7084 9.49166 10.4917 10.7083 9.00002 10.7083Z" fill="white"/>
</svg>
